<svg xmlns="http://www.w3.org/2000/svg" xmlns:xlink="http://www.w3.org/1999/xlink" id="Laag_6" x="0px" y="0px" viewBox="0 0 403.1 121.8" style="enable-background:new 0 0 403.1 121.8;" xml:space="preserve">
<style type="text/css">
	.st0{fill:#0053A1;}
	.st1{fill:url(#SVGID_1_);}
	.st2{fill:url(#SVGID_2_);}
	.st3{fill:url(#SVGID_3_);}
	.st4{fill:url(#SVGID_4_);}
	.st5{fill:url(#SVGID_5_);}
	.st6{fill:url(#SVGID_6_);}
	.st7{fill:url(#SVGID_7_);}
	.st8{fill:url(#SVGID_8_);}
	.st9{fill:url(#SVGID_9_);}
	.st10{fill:url(#SVGID_10_);}
	.st11{fill:url(#SVGID_11_);}
	.st12{fill:url(#SVGID_12_);}
	.st13{fill:#575756;}
</style>
<g>
	<g>
		<path class="st0" d="M403.1,67.4c0-14.2-10-23.4-25-25.6c-5-0.8-9.9-1.7-15-2.3c-6.7-0.9-13.5-4.6-13.5-12.7    c0-4.1,1.4-7.1,3.7-9.8c3.9-4.4,9.5-6.2,16-6.2c7,0,12.5,2.3,15.9,6.2c2.5,2.9,4.2,6.9,4.4,11.3h11.8c-0.3-7.6-3.2-14.1-8.6-19.3    c-6-5.7-14.6-8.6-23.4-8.6c-9.4,0-17.4,3.1-23.6,8.9c-4.8,4.6-7.9,11.1-7.9,17.8c0,14.4,10.6,21.9,24,23.9l14.2,2.2    c10.7,1.7,15.1,7.5,15.1,14.5c0,4.8-1.8,8-4.6,10.6c-4.1,3.8-9.9,5.2-16.8,5.2c-6.4,0-13.2-1.7-17.3-5.6    c-3.7-3.6-6.4-8.9-6.4-14.2h-11.8c0,8.5,3.9,16.3,9.7,21.6c6.1,5.6,14.9,8.6,25.8,8.6c9.7,0,19.3-2.9,25.6-9    C399.9,80.5,403.1,74.9,403.1,67.4 M318.6,59.2V2.1h-11.3v57.3c0,14.4-6,23.9-21.6,23.9c-15.6,0-21.6-9.5-21.6-23.9V2.1h-11.3    v57.1c0,22.5,12.7,34.7,32.9,34.7C305.9,93.9,318.6,81.7,318.6,59.2 M237.5,63.5h-11.7c-0.1,5-2,9.7-5,13    c-3.6,3.9-9.5,6.9-16.4,6.9c-6.1,0-12.1-2.4-16.4-6.9c-7.4-7.6-7.6-19.8-7.6-29.2s0.3-21.6,7.6-29.2c4.3-4.4,10.3-6.9,16.4-6.9    c6.9,0,12.7,2.7,16.3,6.6c2.9,3.3,4.8,7.6,5,12.6h11.7c-0.4-8.4-3.7-15.3-8.9-20.6c-5.5-5.5-14.2-9.3-24-9.3    c-9,0-17.9,3.3-24.4,9.7c-9.8,9.5-11.3,22.8-11.3,37.1c0,14.4,1.5,27.6,11.3,37.1c6.5,6.4,15.4,9.7,24.4,9.7    c9.8,0,18.7-4.2,24.2-9.7C233.8,79,237.1,71.9,237.5,63.5"></path>
	</g>
	<polygon class="st0" points="59.6,11.9 59.6,1.2 0,1.2 0,93.3 11.6,93.3 11.6,52.8 54.4,52.8 54.4,41.9 11.6,41.9 11.6,11.9  "></polygon>
	<g>
		<g>
			<g>
				
					<radialGradient id="SVGID_1_" cx="-51.2458" cy="-250.8869" r="74.3836" gradientTransform="matrix(0.5162 0 0 0.5162 136.0482 170.0514)" gradientUnits="userSpaceOnUse">
					<stop offset="0" style="stop-color:#508ECB"></stop>
					<stop offset="0.204" style="stop-color:#3278BB"></stop>
					<stop offset="0.5" style="stop-color:#0053A1"></stop>
					<stop offset="1" style="stop-color:#06316C"></stop>
				</radialGradient>
				<path class="st1" d="M151.2,20.9l-1.4-2c-3-3.7-3.3-4.1-5.9-6.6c-1.2-1-2.7-2.4-4-3.3c-2-1.5-4.6-2.5-7.7-3      c-16-2.6-40.4,9.7-54.6,27.4C69.3,44,66.4,54.1,68.8,61.1l0.2,0.6c2,4.9,2.8,6.8,6.2,11.7l1.5,1.9c-5.7-7-3.5-19.5,7-32.6      c14.6-18.3,39.9-31,56.3-28.3C145.3,15.3,149,17.6,151.2,20.9"></path>
				
					<radialGradient id="SVGID_2_" cx="-78.1344" cy="-286.1785" r="50.5279" gradientTransform="matrix(0.5162 0 0 0.5162 136.0482 170.0514)" gradientUnits="userSpaceOnUse">
					<stop offset="0" style="stop-color:#508ECB"></stop>
					<stop offset="0.204" style="stop-color:#3278BB"></stop>
					<stop offset="0.5" style="stop-color:#0053A1"></stop>
					<stop offset="1" style="stop-color:#06316C"></stop>
				</radialGradient>
				<path class="st2" d="M125.1,1.7c-1.5-0.4-3.6-0.8-5.1-1.1c-4-0.5-4.6-0.6-8-0.6c-11.7,0.2-27.5,8.8-37,20.7      c-3,3.8-5.1,7.5-6.2,10.8l-0.3,1c-1,3.6-1.2,4.3-1.7,7.9c-0.1,1.3-0.3,2.9-0.3,4.2c0.2-5.5,3-12.2,8.6-19.2      C87.4,9.8,108.9-1,123,1.3C123.7,1.4,124.4,1.6,125.1,1.7"></path>
				
					<radialGradient id="SVGID_3_" cx="-28.4964" cy="-215.1055" r="67.6668" gradientTransform="matrix(0.5162 0 0 0.5162 136.0482 170.0514)" gradientUnits="userSpaceOnUse">
					<stop offset="0" style="stop-color:#508ECB"></stop>
					<stop offset="0.204" style="stop-color:#3278BB"></stop>
					<stop offset="0.5" style="stop-color:#0053A1"></stop>
					<stop offset="1" style="stop-color:#06316C"></stop>
				</radialGradient>
				<path class="st3" d="M158.5,50.4c0.2-4.1,0.3-4.7,0-8.3c-0.2-1.3-0.3-2.9-0.6-4.2c-1-5.7-5.1-9.7-12.2-10.9      c-15.3-2.5-38.8,9.3-52.4,26.4C81.6,68.1,81,81.8,90.8,87c1.6,0.8,3.8,1.8,5.5,2.5c1.9,0.6,4.4,1.4,6.3,1.9      C89.8,88.5,89,74.8,100.8,60c12.1-15.2,33-25.7,46.7-23.5C155.5,37.8,159.2,43.1,158.5,50.4"></path>
				
					<radialGradient id="SVGID_4_" cx="-10.1623" cy="-191.4739" r="43.999" gradientTransform="matrix(0.5162 0 0 0.5162 136.0482 170.0514)" gradientUnits="userSpaceOnUse">
					<stop offset="0" style="stop-color:#508ECB"></stop>
					<stop offset="0.204" style="stop-color:#3278BB"></stop>
					<stop offset="0.5" style="stop-color:#0053A1"></stop>
					<stop offset="1" style="stop-color:#06316C"></stop>
				</radialGradient>
				<path class="st4" d="M129.1,84.6c-3.7-0.6-4.1-4.5-0.8-8.6c3.3-4.1,9-7,12.7-6.4c3.7,0.6,4.1,4.5,0.8,8.6      C138.6,82.3,132.9,85.2,129.1,84.6c-4.5,3.8-9.5,6.1-14.5,7.1c2.8,0.4,5.9,0.2,9.2-0.7l1.3-0.3c2.8-0.9,2.9-0.9,4.4-1.5      c2.5-1.1,2.5-1.1,3.8-1.7c2.3-1.2,2.3-1.2,3.4-1.9c2-1.3,2.2-1.4,3.1-2.1c2-1.5,2-1.5,3-2.4c2-1.8,2-1.8,2.9-2.8      c1.9-2,2-2.1,2.9-3.3c1.9-2.5,1.9-2.6,2.9-4l0.3-0.5c6.1-9.8,4.3-18.3-4.7-19.7c-10.2-1.7-25.7,6.2-34.7,17.5      c-9,11.3-8.1,21.8,2.1,23.4C119.5,90.7,124.5,88.4,129.1,84.6"></path>
			</g>
		</g>
		<g>
			
				<radialGradient id="SVGID_5_" cx="-60.5283" cy="-247.9309" r="128.0587" gradientTransform="matrix(0.5162 0 0 0.5162 136.0482 170.0514)" gradientUnits="userSpaceOnUse">
				<stop offset="0" style="stop-color:#508ECB"></stop>
				<stop offset="0.204" style="stop-color:#3278BB"></stop>
				<stop offset="0.5" style="stop-color:#0053A1"></stop>
				<stop offset="1" style="stop-color:#06316C"></stop>
			</radialGradient>
			<path class="st5" d="M87.3,80.9c16.5,2.5,41.5-10.1,56.1-28.4c10-12.5,12.4-24.4,7.8-31.5l-1.4-2c-2.2-2.9-2.6-3.3-5.9-6.6     c-0.9-0.9-2.1-1.8-3.2-2.7c7.4,6.3,5.8,19.4-5.2,33.2c-14.1,17.7-38.3,29.9-54.3,27.5c0,0-0.2,0-0.3,0     c-6.5-1.1-10.6-4.4-12.2-9.2l0.2,0.6c2.2,5.8,3.4,7.5,6.2,11.7l1.5,1.9c2.2,2.7,5.7,4.6,10.4,5.4C87,80.7,87.3,80.8,87.3,80.9z"></path>
			
				<radialGradient id="SVGID_6_" cx="-60.5248" cy="-247.8284" r="128.1487" gradientTransform="matrix(0.5162 0 0 0.5162 136.0482 170.0514)" gradientUnits="userSpaceOnUse">
				<stop offset="0" style="stop-color:#508ECB"></stop>
				<stop offset="0.204" style="stop-color:#3278BB"></stop>
				<stop offset="0.5" style="stop-color:#0053A1"></stop>
				<stop offset="1" style="stop-color:#06316C"></stop>
			</radialGradient>
			<path class="st6" d="M140.7,9.6c-0.2-0.2-0.5-0.4-0.8-0.6C140.2,9.2,140.5,9.4,140.7,9.6z"></path>
			
				<radialGradient id="SVGID_7_" cx="-60.527" cy="-247.9321" r="128.0549" gradientTransform="matrix(0.5162 0 0 0.5162 136.0482 170.0514)" gradientUnits="userSpaceOnUse">
				<stop offset="0" style="stop-color:#508ECB"></stop>
				<stop offset="0.204" style="stop-color:#3278BB"></stop>
				<stop offset="0.5" style="stop-color:#0053A1"></stop>
				<stop offset="1" style="stop-color:#06316C"></stop>
			</radialGradient>
			<path class="st7" d="M79.3,35c0-0.1,0.2-0.1,0.1,0c8.1,1.2,20.5-5,27.7-14c7.2-9.1,6.5-17.5-1.7-18.8c-8.1-1.3-20.6,4.9-27.8,14     C70.4,25.3,71.1,33.7,79.3,35z M83.3,14.2c3.3-4.1,8.9-6.9,12.5-6.3c3.7,0.6,4,4.4,0.7,8.5c-3.2,4.1-8.8,6.9-12.5,6.3     c-0.1,0.1-0.1,0.1-0.1,0C80.3,22.1,80,18.3,83.3,14.2z"></path>
			
				<radialGradient id="SVGID_8_" cx="-60.5275" cy="-247.9317" r="128.0576" gradientTransform="matrix(0.5162 0 0 0.5162 136.0482 170.0514)" gradientUnits="userSpaceOnUse">
				<stop offset="0" style="stop-color:#508ECB"></stop>
				<stop offset="0.204" style="stop-color:#3278BB"></stop>
				<stop offset="0.5" style="stop-color:#0053A1"></stop>
				<stop offset="1" style="stop-color:#06316C"></stop>
			</radialGradient>
			<path class="st8" d="M77.8,57.9c0-0.1,0.2-0.1,0.2,0c14.1,2.1,35.4-8.7,47.9-24.2c11.8-14.8,11.3-28.7-0.8-32     c-1.5-0.4-3.6-0.8-5.1-1.1c-2.9-0.5-5.2-0.5-8-0.6c1.3,0,2.5,0.1,3.7,0.3c11.9,1.9,13,14.2,2.4,27.5     C107.5,40.9,89.4,50,77.5,48.2c0,0.1-0.2,0.1-0.2,0c-8.5-1.4-11.5-8.1-8.6-16.6l-0.3,1c-1,3.4-1.1,4.1-1.7,7.9     c-0.1,1.2-0.2,2.9-0.3,4.2C66.1,51.6,69.9,56.7,77.8,57.9z"></path>
			
				<radialGradient id="SVGID_9_" cx="-60.5273" cy="-247.9311" r="128.0589" gradientTransform="matrix(0.5162 0 0 0.5162 136.0482 170.0514)" gradientUnits="userSpaceOnUse">
				<stop offset="0" style="stop-color:#508ECB"></stop>
				<stop offset="0.204" style="stop-color:#3278BB"></stop>
				<stop offset="0.5" style="stop-color:#0053A1"></stop>
				<stop offset="1" style="stop-color:#06316C"></stop>
			</radialGradient>
			<path class="st9" d="M158.5,42.1c-0.1-1.3-0.4-2.9-0.6-4.2c1.2,6.6-1.8,15.4-9.1,24.5c-13.5,17-36.8,28.7-52.2,26.4     c0.1,0.1-0.1,0-0.2,0c-2.2-0.4-4.1-1-5.7-1.8c1.6,0.8,3.8,1.8,5.5,2.5c1.9,0.6,4.4,1.4,6.3,1.9c0.3,0.1,0.7,0.1,1,0.2     c-0.7-0.2-0.5-0.1,0.2,0c13.7,2.1,34.4-8.4,46.5-23.5c5-6.3,7.8-12.5,8.3-17.6C158.8,46.9,158.8,46.3,158.5,42.1z"></path>
			
				<radialGradient id="SVGID_10_" cx="-60.5289" cy="-247.932" r="128.0597" gradientTransform="matrix(0.5162 0 0 0.5162 136.0482 170.0514)" gradientUnits="userSpaceOnUse">
				<stop offset="0" style="stop-color:#508ECB"></stop>
				<stop offset="0.204" style="stop-color:#3278BB"></stop>
				<stop offset="0.5" style="stop-color:#0053A1"></stop>
				<stop offset="1" style="stop-color:#06316C"></stop>
			</radialGradient>
			<path class="st10" d="M123.8,91l1.3-0.3c1.6-0.5,1.7-0.5,4.4-1.5c1.3-0.5,1.4-0.6,3.8-1.7c1.2-0.6,1.2-0.6,3.4-1.9     c1.1-0.7,1.1-0.7,3.1-2.1c0.9-0.6,1.1-0.8,3-2.4c1-0.9,1-0.9,2.9-2.8c1-1.1,1-1.1,2.9-3.3c0.9-1.2,1.1-1.4,2.2-3.1     c-0.5,0.7-1.1,1.5-1.7,2.2C142.7,82.4,132.7,88.8,123.8,91z"></path>
			
				<radialGradient id="SVGID_11_" cx="-60.5781" cy="-247.9056" r="128.0934" gradientTransform="matrix(0.5162 0 0 0.5162 136.0482 170.0514)" gradientUnits="userSpaceOnUse">
				<stop offset="0" style="stop-color:#508ECB"></stop>
				<stop offset="0.204" style="stop-color:#3278BB"></stop>
				<stop offset="0.5" style="stop-color:#0053A1"></stop>
				<stop offset="1" style="stop-color:#06316C"></stop>
			</radialGradient>
			<path class="st11" d="M151.5,71l0.3-0.5c-0.1,0.2-0.3,0.5-0.5,0.7C151.4,71.1,151.5,71.1,151.5,71z"></path>
			<g>
				
					<radialGradient id="SVGID_12_" cx="-60.4625" cy="-247.9305" r="127.9918" gradientTransform="matrix(0.5162 0 0 0.5162 136.0482 170.0514)" gradientUnits="userSpaceOnUse">
					<stop offset="0" style="stop-color:#508ECB"></stop>
					<stop offset="0.204" style="stop-color:#3278BB"></stop>
					<stop offset="0.5" style="stop-color:#0053A1"></stop>
					<stop offset="1" style="stop-color:#06316C"></stop>
				</radialGradient>
				<path class="st12" d="M151.4,71.2c-0.2,0.3-0.4,0.5-0.5,0.8C151,71.7,151.2,71.5,151.4,71.2z"></path>
			</g>
		</g>
	</g>
	<g>
		<path class="st13" d="M75.3,109.7c0.8,0.6,1.1,1.5,1.1,2.8v0.2H74v-0.2c0-0.5-0.2-1-0.5-1.3s-0.7-0.5-1.3-0.5    c-0.6,0-1,0.1-1.3,0.4c-0.3,0.3-0.5,0.6-0.5,1c0,0.3,0.1,0.6,0.3,0.8c0.2,0.2,0.5,0.4,0.8,0.5s0.7,0.3,1.3,0.5    c0.8,0.2,1.4,0.5,1.9,0.7c0.5,0.2,0.9,0.6,1.3,1.1c0.4,0.5,0.5,1.2,0.5,2c0,1.4-0.4,2.4-1.2,3s-1.9,1-3.3,1    c-0.8,0-1.5-0.1-2.2-0.4c-0.7-0.3-1.2-0.7-1.6-1.3c-0.4-0.6-0.6-1.3-0.6-2.1v-0.4h2.5l0,0.3c0,0.6,0.2,1.1,0.5,1.4    c0.4,0.4,0.8,0.5,1.5,0.5c0.7,0,1.1-0.1,1.4-0.4c0.3-0.3,0.5-0.6,0.5-1c0-0.4-0.1-0.7-0.3-1c-0.2-0.3-0.5-0.5-0.8-0.6    c-0.3-0.2-0.8-0.3-1.4-0.5c-0.8-0.3-1.4-0.5-1.8-0.7c-0.5-0.2-0.9-0.6-1.2-1.1s-0.5-1.2-0.5-2c0-0.8,0.2-1.4,0.6-1.9    s0.9-0.9,1.5-1.2c0.6-0.3,1.3-0.4,2.1-0.4C73.5,108.8,74.5,109.1,75.3,109.7z"></path>
		<path class="st13" d="M87,110.4c0.9,1.1,1.4,2.7,1.4,4.9c0,2.2-0.5,3.8-1.4,4.9c-0.9,1.1-2.2,1.6-3.9,1.6c-1.7,0-2.9-0.5-3.9-1.6    c-0.9-1.1-1.4-2.7-1.4-4.9c0-2.2,0.5-3.8,1.4-4.9c0.9-1.1,2.2-1.6,3.9-1.6C84.8,108.8,86.1,109.3,87,110.4z M81.1,111.9    c-0.5,0.7-0.7,1.7-0.7,3v0.9c0,1.3,0.2,2.3,0.7,3c0.5,0.7,1.2,1.1,2.1,1.1s1.6-0.4,2.1-1.1s0.7-1.7,0.7-3v-0.9    c0-1.3-0.2-2.3-0.7-3c-0.5-0.7-1.2-1.1-2.1-1.1S81.6,111.2,81.1,111.9z"></path>
		<path class="st13" d="M97.8,119.4v2.2h-7.7V109h2.4v10.3H97.8z"></path>
		<path class="st13" d="M106.8,120.7c-0.8,0.7-1.8,1.1-3.2,1.1s-2.4-0.4-3.2-1.1c-0.8-0.7-1.1-1.7-1.1-3.1V109h2.4v8.5    c0,0.7,0.2,1.3,0.5,1.6c0.3,0.4,0.8,0.6,1.4,0.6c0.6,0,1.1-0.2,1.5-0.6c0.3-0.4,0.5-0.9,0.5-1.6V109h2.4v8.6    C108,119,107.6,120,106.8,120.7z"></path>
		<path class="st13" d="M114.8,111.1v10.4h-2.3v-10.4h-3.1V109h8.6v2.1H114.8z"></path>
		<path class="st13" d="M119.2,109h2.3v12.5h-2.3V109z"></path>
		<path class="st13" d="M132.2,110.4c0.9,1.1,1.4,2.7,1.4,4.9c0,2.2-0.5,3.8-1.4,4.9c-0.9,1.1-2.2,1.6-3.9,1.6    c-1.7,0-2.9-0.5-3.9-1.6c-0.9-1.1-1.4-2.7-1.4-4.9c0-2.2,0.5-3.8,1.4-4.9c0.9-1.1,2.2-1.6,3.9-1.6    C130,108.8,131.2,109.3,132.2,110.4z M126.2,111.9c-0.5,0.7-0.7,1.7-0.7,3v0.9c0,1.3,0.2,2.3,0.7,3c0.5,0.7,1.2,1.1,2.1,1.1    s1.6-0.4,2.1-1.1s0.7-1.7,0.7-3v-0.9c0-1.3-0.2-2.3-0.7-3c-0.5-0.7-1.2-1.1-2.1-1.1S126.7,111.2,126.2,111.9z"></path>
		<path class="st13" d="M141.8,121.5l-3.9-6.9l-0.6-1.2l-0.1,0.1c0,0.1,0,0.2,0,0.4c0,0.2,0,0.4,0,0.6v7h-2.1V109h2.1l3.9,6.9    c0.1,0.1,0.2,0.3,0.3,0.6c0.1,0.3,0.2,0.5,0.3,0.5l0,0V116V109h2.1v12.5H141.8z"></path>
		<path class="st13" d="M153,109.7c0.8,0.6,1.1,1.5,1.1,2.8v0.2h-2.4v-0.2c0-0.5-0.2-1-0.5-1.3s-0.7-0.5-1.3-0.5    c-0.6,0-1,0.1-1.3,0.4c-0.3,0.3-0.5,0.6-0.5,1c0,0.3,0.1,0.6,0.3,0.8c0.2,0.2,0.5,0.4,0.8,0.5s0.7,0.3,1.3,0.5    c0.8,0.2,1.4,0.5,1.9,0.7c0.5,0.2,0.9,0.6,1.3,1.1c0.4,0.5,0.5,1.2,0.5,2c0,1.4-0.4,2.4-1.2,3s-1.9,1-3.3,1    c-0.8,0-1.5-0.1-2.2-0.4c-0.7-0.3-1.2-0.7-1.6-1.3c-0.4-0.6-0.6-1.3-0.6-2.1v-0.4h2.5l0,0.3c0,0.6,0.2,1.1,0.5,1.4    c0.4,0.4,0.8,0.5,1.5,0.5c0.7,0,1.1-0.1,1.4-0.4c0.3-0.3,0.5-0.6,0.5-1c0-0.4-0.1-0.7-0.3-1c-0.2-0.3-0.5-0.5-0.8-0.6    c-0.3-0.2-0.8-0.3-1.4-0.5c-0.8-0.3-1.4-0.5-1.8-0.7c-0.5-0.2-0.9-0.6-1.2-1.1s-0.5-1.2-0.5-2c0-0.8,0.2-1.4,0.6-1.9    s0.9-0.9,1.5-1.2c0.6-0.3,1.3-0.4,2.1-0.4C151.2,108.8,152.2,109.1,153,109.7z"></path>
	</g>
</g>
</svg>